# xmcd
#
# Track frame offsets: 
#        150
#        17671
#        31841
#        43040
#        56098
#        71410
#        80987
#        88536
#        103463
#        115701
#
# Disc length: 1717 seconds
#
# Revision: 0
# Processed by: cddbd v1.5.2PL0 Copyright (c) Steve Scherf et al.
# Submitted via: ExactAudioCopyFreeDBPlugin 1.0
#
DISCID=8206b30a
DTITLE=Various Artist - Country Crossroad - My First Taste Of Texas
DYEAR=1900
DGENRE=Country
TTITLE0=Ed Bruce - My First Taste Of Texas
TTITLE1=Larry Gatlin and The Gatlin Brothers - Houston
TTITLE2=Jerry Wallace - San Antonio Stroll
TTITLE3=Don Gibson - If You Ever Get To Houston
TTITLE4=Whitey Shafer - All My Ex's Live In Texas
TTITLE5=Glen Barber - Abiline
TTITLE6=Willie Nelson - I Got To Get Drunk
TTITLE7=Johnny Cash and Waylon Jennings - There Ain't No Good Chain Gang
TTITLE8=Gene Watson - Memories To Burn
TTITLE9=Tanya Tucker - The Man That Turned My Mama On
EXTD=
EXTT0=
EXTT1=
EXTT2=
EXTT3=
EXTT4=
EXTT5=
EXTT6=
EXTT7=
EXTT8=
EXTT9=
PLAYORDER=
